<svg width="36" height="40" viewBox="0 0 36 40" fill="none" xmlns="http://www.w3.org/2000/svg">
<path d="M33.2968 29.1314L33.0693 28.8479C31.2685 26.5712 29.7635 25.3864 28.472 25.2307C27.3555 25.0784 26.2758 25.8502 25.1278 26.6447L23.901 27.4112C23.754 27.4847 23.6088 27.5442 23.4723 27.5844C22.7548 27.7874 20.9435 27.9064 19.918 26.9684C18.7245 25.8764 16.873 23.8779 15.4328 22.1314C14.0573 20.3237 12.5453 18.0697 11.756 16.6504C11.0893 15.4482 11.6475 13.7664 12.0203 13.1434C12.0938 13.0209 12.19 12.9002 12.2968 12.7812L13.3783 11.7819C13.394 11.7662 13.401 11.7469 13.415 11.7329C13.4255 11.7224 13.443 11.7259 13.4553 11.7172C14.4318 10.8929 15.4415 10.0442 15.5798 8.95391C15.7425 7.67291 14.9463 5.94041 13.142 3.66541L12.9215 3.38191C11.805 1.95041 10.1163 -0.214338 7.69078 0.142662C6.73703 0.284412 5.88478 0.609912 5.00628 1.16116C4.99753 1.16641 4.99228 1.17691 4.98528 1.18216C4.97828 1.18741 4.96953 1.18741 4.96253 1.19266L3.73928 2.09916C3.72703 2.10616 3.72003 2.12191 3.70778 2.13241C3.69903 2.14116 3.68503 2.14291 3.67453 2.15166C3.53278 2.27066 3.39103 2.39316 3.25103 2.51916C2.01028 3.62516 -0.675969 6.83641 1.15628 12.7759C2.33928 16.6119 4.77878 21.0884 8.22803 25.7469L8.19478 25.7749L10.097 28.1444L10.1128 28.1322C13.8525 32.5562 17.6588 35.9757 21.1465 38.0459C23.474 39.4284 25.5075 39.8852 27.1805 39.8852C29.382 39.8852 30.9588 39.0942 31.7498 38.5797L32.2468 38.2472C32.3028 38.2087 32.343 38.1544 32.3833 38.1054L33.4665 37.2899C33.4788 37.2794 33.4858 37.2654 33.498 37.2549C33.5033 37.2497 33.512 37.2514 33.519 37.2462C34.289 36.5427 34.8228 35.8059 35.1938 34.9327C36.1545 32.6944 34.4343 30.5507 33.2968 29.1314ZM33.9075 34.3832C33.6188 35.0622 33.197 35.6397 32.588 36.1997L30.9763 37.4124C29.5168 38.3609 26.3965 39.5334 21.864 36.8419C18.3763 34.7717 14.5368 31.2717 10.7585 26.7199L9.73653 25.4284C6.17878 20.7104 3.67628 16.1919 2.49503 12.3629C0.960282 7.38416 2.89403 4.71366 4.18903 3.56041C4.32028 3.44141 4.45153 3.33116 4.58103 3.22091L4.58628 3.21566L5.76053 2.34591C6.47453 1.89441 7.13603 1.64241 7.89728 1.52691C9.52303 1.28191 10.846 2.99691 11.8173 4.24291L12.0448 4.53166C14.0608 7.07441 14.255 8.28366 14.192 8.77716C14.122 9.32491 13.289 10.0267 12.554 10.6444L12.4508 10.7319C12.4473 10.7354 12.4455 10.7407 12.442 10.7442C12.4368 10.7477 12.4315 10.7494 12.4263 10.7529L11.308 11.7872C11.301 11.7942 11.2975 11.8029 11.2905 11.8117C11.2835 11.8204 11.2695 11.8239 11.2625 11.8327C11.0893 12.0269 10.9405 12.2212 10.8198 12.4224C10.1915 13.4742 9.59828 15.6477 10.5345 17.3294C11.3518 18.7994 12.9075 21.1217 14.3373 22.9977C15.8318 24.8107 17.7375 26.8687 18.973 27.9974C19.8988 28.8427 21.1868 29.1262 22.3015 29.1262C22.8983 29.1262 23.446 29.0439 23.8608 28.9267C24.0795 28.8637 24.3053 28.7727 24.538 28.6589C24.552 28.6519 24.559 28.6397 24.573 28.6309C24.58 28.6274 24.5905 28.6292 24.5975 28.6239L25.896 27.8119C25.938 27.7839 25.966 27.7472 26.001 27.7122L26.0168 27.7297C26.8165 27.1749 27.7283 26.5239 28.2988 26.6184C28.8045 26.6797 29.9525 27.1662 31.972 29.7159L32.2048 30.0082C33.1883 31.2349 34.5358 32.9149 33.9075 34.3832Z" fill="white"/>
</svg>
