<svg width="23" height="38" viewBox="0 0 23 38" fill="none" xmlns="http://www.w3.org/2000/svg">
<path d="M21.4824 0.792758C19.7171 0.605489 17.9429 0.514354 16.1677 0.519758C10.2824 0.519758 6.6249 4.26826 6.6249 10.3023V14.399H1.68115C1.44909 14.399 1.22653 14.4912 1.06243 14.6553C0.898339 14.8194 0.806152 15.0419 0.806152 15.274V22.0115C0.806152 22.2436 0.898339 22.4661 1.06243 22.6302C1.22653 22.7943 1.44909 22.8865 1.68115 22.8865H6.6249V36.3965C6.6249 36.6286 6.71709 36.8511 6.88118 37.0152C7.04528 37.1793 7.26784 37.2715 7.4999 37.2715H14.4614C14.6935 37.2715 14.916 37.1793 15.0801 37.0152C15.2442 36.8511 15.3364 36.6286 15.3364 36.3965V22.8865H20.2644C20.4768 22.8866 20.6821 22.8094 20.8418 22.6694C21.0015 22.5293 21.1048 22.3359 21.1324 22.1253L22.0022 15.3878C22.0183 15.2643 22.008 15.1387 21.9718 15.0196C21.9356 14.9004 21.8743 14.7903 21.7921 14.6967C21.71 14.6031 21.6088 14.5282 21.4953 14.4768C21.3818 14.4255 21.2587 14.3989 21.1342 14.399H15.3364V10.9708C15.3364 9.27326 15.6777 8.56451 17.8004 8.56451H21.3687C21.6007 8.56451 21.8233 8.47232 21.9874 8.30823C22.1515 8.14413 22.2437 7.92157 22.2437 7.68951V1.66076C22.2438 1.44832 22.1666 1.2431 22.0265 1.08339C21.8864 0.923676 21.693 0.820375 21.4824 0.792758ZM20.4937 6.81276L17.7987 6.81451C14.0239 6.81451 13.5864 9.18751 13.5864 10.9708V15.2758C13.5864 15.5075 13.6783 15.7298 13.8421 15.8939C14.0058 16.0579 14.2279 16.1503 14.4597 16.1508H20.1402L19.4944 21.1383H14.4614C14.2293 21.1383 14.0068 21.2304 13.8427 21.3945C13.6786 21.5586 13.5864 21.7812 13.5864 22.0133V35.5198H8.3749V22.0133C8.3749 21.7812 8.28272 21.5586 8.11862 21.3945C7.95453 21.2304 7.73197 21.1383 7.4999 21.1383H2.5579V16.1508H7.4999C7.73197 16.1508 7.95453 16.0586 8.11862 15.8945C8.28272 15.7304 8.3749 15.5078 8.3749 15.2758V10.3023C8.3749 5.27276 11.2887 2.26976 16.1677 2.26976C17.9334 2.26976 19.5277 2.36601 20.4937 2.45001V6.81276Z" fill="white"/>
</svg>
