<svg width="43" height="35" viewBox="0 0 43 35" fill="none" xmlns="http://www.w3.org/2000/svg">
<path d="M13.1077 11.5732H-0.184634C-0.593003 11.5732 -0.923096 11.8899 -0.923096 12.2817V16.5328C-0.923096 16.9246 -0.593003 17.2413 -0.184634 17.2413H0.553827V33.5368C0.553827 33.9286 0.88392 34.2453 1.29229 34.2453H11.6308C12.0391 34.2453 12.3692 33.9286 12.3692 33.5368V30.7028V20.0753V17.2413H13.1077C13.516 17.2413 13.8461 16.9246 13.8461 16.5328V12.2817C13.8461 11.8899 13.516 11.5732 13.1077 11.5732ZM4.9846 25.0348V23.6178H9.41537V22.2008H4.9846V20.7838H10.8923V29.9943H4.9846V26.4518H6.46152V25.0348H4.9846ZM10.8923 19.3668H4.24614C3.83777 19.3668 3.50767 19.6835 3.50767 20.0753V30.7028C3.50767 31.0946 3.83777 31.4113 4.24614 31.4113H10.8923V32.8283H2.03075V17.2413H10.8923V19.3668ZM12.3692 15.8243H11.6308H1.29229H0.553827V12.9902H12.3692V15.8243Z" fill="#2B7FFF"/>
<path d="M22.8924 11.7058V6.52602C22.8924 6.12264 22.5623 5.79657 22.1539 5.79657H21.4154V2.14933H22.8924V0.69043H14.7693V2.14933H19.9385V5.79657H19.2001C18.7917 5.79657 18.4616 6.12264 18.4616 6.52602V11.7058C16.7786 12.045 15.5077 13.5178 15.5077 15.2794V16.7383V30.5978V33.5156C15.5077 33.919 15.8378 34.2451 16.2462 34.2451H25.1077C25.5161 34.2451 25.8462 33.919 25.8462 33.5156V30.5978V16.7383V15.2794C25.8462 13.5185 24.5753 12.045 22.8924 11.7058ZM19.9385 7.25547H21.4154V11.6322H19.9385V7.25547ZM19.2001 13.0911H22.1539C23.3753 13.0911 24.3693 14.0729 24.3693 15.2794V16.0089H16.9847V15.2794C16.9847 14.0729 17.9786 13.0911 19.2001 13.0911ZM24.3693 29.8684H16.9847V28.4095H19.9385V26.9506H16.9847V17.4678H24.3693V29.8684ZM16.9847 32.7862V31.3273H24.3693V32.7862H16.9847Z" fill="#2B7FFF"/>
<path d="M41.7693 10.666H29.3078C28.9249 10.666 28.6155 10.9854 28.6155 11.3805V33.5305C28.6155 33.9256 28.9249 34.245 29.3078 34.245H41.7693C42.1522 34.245 42.4616 33.9256 42.4616 33.5305V11.3805C42.4616 10.9854 42.1522 10.666 41.7693 10.666ZM41.077 32.8159H30.0001V12.095H41.077V32.8159Z" fill="#2B7FFF"/>
<path d="M10.1538 25.1758H8.30762V26.0827H10.1538V25.1758Z" fill="#2B7FFF"/>
<path d="M23.0769 26.9902H21.2307V28.804H23.0769V26.9902Z" fill="#2B7FFF"/>
<path d="M20.7691 25.1763C22.5509 25.1763 23.9999 23.7527 23.9999 22.0022C23.9999 20.2517 22.5509 18.8281 20.7691 18.8281C18.9873 18.8281 17.5383 20.2517 17.5383 22.0022C17.5383 23.7527 18.9873 25.1763 20.7691 25.1763ZM20.7691 20.4152C21.66 20.4152 22.3845 21.127 22.3845 22.0022C22.3845 22.8775 21.66 23.5893 20.7691 23.5893C19.8782 23.5893 19.1537 22.8775 19.1537 22.0022C19.1537 21.127 19.8782 20.4152 20.7691 20.4152Z" fill="#2B7FFF"/>
<path d="M33.8076 17.9211H37.2691C38.6053 17.9211 39.6922 16.9041 39.6922 15.6539C39.6922 14.4037 38.6053 13.3867 37.2691 13.3867H33.8076C32.4714 13.3867 31.3845 14.4037 31.3845 15.6539C31.3845 16.9041 32.4714 17.9211 33.8076 17.9211ZM38.3076 15.6539C38.3076 16.1896 37.8417 16.6256 37.2691 16.6256H36.2307V14.6823H37.2691C37.8417 14.6823 38.3076 15.1182 38.3076 15.6539ZM33.8076 14.6823H34.8461V16.6256H33.8076C33.2351 16.6256 32.7691 16.1896 32.7691 15.6539C32.7691 15.1182 33.2351 14.6823 33.8076 14.6823Z" fill="#2B7FFF"/>
<path d="M33.8076 25.1766H37.2691C38.6053 25.1766 39.6922 23.9562 39.6922 22.456C39.6922 20.9558 38.6053 19.7354 37.2691 19.7354H33.8076C32.4714 19.7354 31.3845 20.9558 31.3845 22.456C31.3845 23.9562 32.4714 25.1766 33.8076 25.1766ZM38.3076 22.456C38.3076 23.0989 37.8417 23.622 37.2691 23.622H36.2307V21.29H37.2691C37.8417 21.29 38.3076 21.8131 38.3076 22.456ZM33.8076 21.29H34.8461V23.622H33.8076C33.2351 23.622 32.7691 23.0989 32.7691 22.456C32.7691 21.8131 33.2351 21.29 33.8076 21.29Z" fill="#2B7FFF"/>
<path d="M33.8076 31.5243H37.2691C38.6053 31.5243 39.6922 30.3039 39.6922 28.8037C39.6922 27.3034 38.6053 26.083 37.2691 26.083H33.8076C32.4714 26.083 31.3845 27.3034 31.3845 28.8037C31.3845 30.3039 32.4714 31.5243 33.8076 31.5243ZM38.3076 28.8037C38.3076 29.4465 37.8417 29.9696 37.2691 29.9696H36.2307V27.6377H37.2691C37.8417 27.6377 38.3076 28.1608 38.3076 28.8037ZM33.8076 27.6377H34.8461V29.9696H33.8076C33.2351 29.9696 32.7691 29.4465 32.7691 28.8037C32.7691 28.1608 33.2351 27.6377 33.8076 27.6377Z" fill="#2B7FFF"/>
</svg>
