<svg width="44" height="36" viewBox="0 0 44 36" fill="none" xmlns="http://www.w3.org/2000/svg">
<path d="M42.5313 8.4892C42.1521 8.14549 41.6934 7.92483 41.2065 7.85197C40.7197 7.7791 40.224 7.85693 39.7751 8.0767L30.3063 12.6967C30.2646 12.7217 30.2187 12.7373 30.1715 12.7426C30.1242 12.7478 30.0764 12.7426 30.031 12.7272C29.9855 12.7118 29.9434 12.6866 29.9069 12.653C29.8705 12.6195 29.8405 12.5782 29.8188 12.5317L24.2876 1.60045C24.0633 1.14858 23.7325 0.771486 23.33 0.508772C22.9275 0.246059 22.4681 0.107422 22.0001 0.107422C21.532 0.107422 21.0727 0.246059 20.6701 0.508772C20.2676 0.771486 19.9369 1.14858 19.7126 1.60045L14.1813 12.5317C14.1596 12.5782 14.1297 12.6195 14.0932 12.653C14.0568 12.6866 14.0146 12.7118 13.9692 12.7272C13.9238 12.7426 13.876 12.7478 13.8287 12.7426C13.7814 12.7373 13.7356 12.7217 13.6938 12.6967L4.22508 8.0767C3.77775 7.85353 3.28247 7.77291 2.79555 7.84399C2.30863 7.91506 1.84961 8.13499 1.47067 8.47877C1.09174 8.82255 0.80809 9.27638 0.651978 9.78867C0.495866 10.301 0.473554 10.8512 0.587579 11.3767L5.36883 33.7136C5.4498 34.0911 5.59956 34.4465 5.80905 34.7585C6.01853 35.0705 6.28339 35.3325 6.58758 35.5286C6.98831 35.7984 7.44901 35.9411 7.91883 35.9411C8.15925 35.9386 8.39851 35.904 8.63133 35.8379C17.3726 33.1779 26.6055 33.1707 35.3501 35.8173C35.6912 35.9256 36.0487 35.9567 36.4011 35.9086C36.7534 35.8606 37.0932 35.7344 37.3999 35.5378C37.7067 35.3411 37.9739 35.078 38.1856 34.7645C38.3973 34.451 38.5489 34.0934 38.6313 33.7136L43.3938 11.3767C43.5128 10.8549 43.4949 10.3068 43.3423 9.79571C43.1896 9.28466 42.9085 8.83165 42.5313 8.4892ZM41.2188 10.7992L36.4376 33.1361C36.4119 33.2446 36.3521 33.3396 36.2688 33.4042C36.1757 33.454 36.0702 33.4685 35.9688 33.4454C26.8275 30.6678 17.1727 30.6678 8.03133 33.4454C7.98205 33.4608 7.93043 33.4649 7.87966 33.4575C7.82889 33.4501 7.78003 33.4313 7.73611 33.4023C7.69219 33.3733 7.65413 33.3347 7.62429 33.2889C7.59444 33.2432 7.57344 33.1911 7.56258 33.1361L2.78133 10.7992C2.77043 10.7375 2.77185 10.674 2.7855 10.613C2.79915 10.552 2.82469 10.495 2.86037 10.4459C2.89605 10.3969 2.94099 10.357 2.9921 10.3289C3.04321 10.3009 3.09924 10.2854 3.15633 10.2836L3.30633 10.3248L12.7938 14.9654C13.3921 15.2618 14.0701 15.299 14.6922 15.0696C15.3144 14.8402 15.835 14.3611 16.1501 13.7279L21.6813 2.7967C21.7109 2.73154 21.7564 2.67674 21.8127 2.63843C21.869 2.60012 21.9339 2.57983 22.0001 2.57983C22.0663 2.57983 22.1312 2.60012 22.1875 2.63843C22.2438 2.67674 22.2893 2.73154 22.3188 2.7967L27.8501 13.7279C28.1652 14.3611 28.6858 14.8402 29.3079 15.0696C29.9301 15.299 30.608 15.2618 31.2063 14.9654L40.6938 10.3248C40.7581 10.2935 40.8291 10.2827 40.8988 10.2936C40.9684 10.3045 41.0338 10.3368 41.0876 10.3867C41.1424 10.435 41.1837 10.4993 41.2069 10.5723C41.2302 10.6452 41.2343 10.7238 41.2188 10.7992ZM29.1251 26.4742C29.0931 26.7787 28.9612 27.06 28.754 27.265C28.5469 27.4701 28.2788 27.5849 28.0001 27.5879H27.8876C23.9725 27.1548 20.0277 27.1548 16.1126 27.5879C15.8168 27.6227 15.5206 27.5272 15.2887 27.3223C15.0568 27.1175 14.9081 26.82 14.8751 26.4948C14.8487 26.1674 14.9399 25.8417 15.1292 25.5873C15.3184 25.3329 15.5906 25.17 15.8876 25.1336C19.9512 24.6592 24.049 24.6592 28.1126 25.1336C28.406 25.17 28.6753 25.3299 28.864 25.5798C29.0528 25.8297 29.1463 26.1502 29.1251 26.4742Z" fill="#2B7FFF"/>
</svg>
