<svg width="32" height="32" viewBox="0 0 32 32" fill="none" xmlns="http://www.w3.org/2000/svg">
<path d="M23.9867 2.12797C22.6417 1.98529 21.2899 1.91586 19.9373 1.91997C15.4533 1.91997 12.6667 4.77597 12.6667 9.37331V12.4946H8.9C8.72319 12.4946 8.55362 12.5649 8.4286 12.6899C8.30357 12.8149 8.23334 12.9845 8.23334 13.1613V18.2946C8.23334 18.4714 8.30357 18.641 8.4286 18.766C8.55362 18.8911 8.72319 18.9613 8.9 18.9613H12.6667V29.2546C12.6667 29.4314 12.7369 29.601 12.8619 29.726C12.987 29.8511 13.1565 29.9213 13.3333 29.9213H18.6373C18.8141 29.9213 18.9837 29.8511 19.1087 29.726C19.2338 29.601 19.304 29.4314 19.304 29.2546V18.9613H23.0587C23.2205 18.9614 23.3769 18.9026 23.4986 18.7959C23.6203 18.6891 23.699 18.5418 23.72 18.3813L24.3827 13.248C24.395 13.1539 24.3871 13.0582 24.3595 12.9675C24.3319 12.8767 24.2853 12.7928 24.2227 12.7215C24.1601 12.6502 24.083 12.593 23.9965 12.5539C23.91 12.5148 23.8162 12.4946 23.7213 12.4946H19.304V9.88264C19.304 8.58931 19.564 8.04931 21.1813 8.04931H23.9C24.0768 8.04931 24.2464 7.97907 24.3714 7.85404C24.4964 7.72902 24.5667 7.55945 24.5667 7.38264V2.78931C24.5667 2.62745 24.5079 2.47109 24.4012 2.34941C24.2945 2.22772 24.1472 2.14901 23.9867 2.12797ZM23.2333 6.71464L21.18 6.71597C18.304 6.71597 17.9707 8.52397 17.9707 9.88264V13.1626C17.9707 13.3392 18.0407 13.5086 18.1655 13.6336C18.2902 13.7586 18.4594 13.829 18.636 13.8293H22.964L22.472 17.6293H18.6373C18.4605 17.6293 18.291 17.6995 18.1659 17.8246C18.0409 17.9496 17.9707 18.1192 17.9707 18.296V28.5866H14V18.296C14 18.1192 13.9298 17.9496 13.8047 17.8246C13.6797 17.6995 13.5101 17.6293 13.3333 17.6293H9.568V13.8293H13.3333C13.5101 13.8293 13.6797 13.7591 13.8047 13.634C13.9298 13.509 14 13.3394 14 13.1626V9.37331C14 5.54131 16.22 3.25331 19.9373 3.25331C21.2827 3.25331 22.4973 3.32664 23.2333 3.39064V6.71464Z" fill="#011C44"/>
</svg>
