<svg width="423" height="482" viewBox="0 0 423 482" fill="none" xmlns="http://www.w3.org/2000/svg">
<mask id="mask0_111_175" style="mask-type:alpha" maskUnits="userSpaceOnUse" x="0" y="0" width="423" height="482">
<rect y="0.865234" width="423" height="481" rx="32" fill="#011C44"/>
</mask>
<g mask="url(#mask0_111_175)">
<path fill-rule="evenodd" clip-rule="evenodd" d="M-62.7738 273.711C-65.9301 224.802 -80.2858 174.838 -57.0167 132.373C-27.1259 77.8238 17.7604 11.6103 77.2653 18.1469C136.751 24.6813 147.9 110.707 186.167 159.086C217.954 199.273 277.423 221.462 279.414 273.711C281.427 326.529 233.598 363.758 195.268 397.914C161.042 428.414 122.111 454.01 77.2653 453.849C32.5575 453.688 -11.6227 433.488 -39.9348 397.069C-66.1371 363.364 -59.9698 317.161 -62.7738 273.711Z" stroke="#011F4A" stroke-width="4"/>
<path fill-rule="evenodd" clip-rule="evenodd" d="M125.637 439.031C121.763 377.581 84.6676 280.031 140.646 262.009C207.657 240.435 239.081 373.855 308.914 380.027C366.312 385.1 399.604 262.302 451.1 289.449C496.135 313.191 421.86 386.048 420.838 439.031C419.863 489.594 470.872 539.744 445.444 582.663C419.205 626.951 358.484 625.96 308.914 627.945C256.689 630.037 198.907 632.513 161.576 594.034C124.038 555.342 129.114 494.197 125.637 439.031Z" stroke="#011F4A" stroke-width="4"/>
<path fill-rule="evenodd" clip-rule="evenodd" d="M-60.1575 636.725C-74.5025 583.893 -130.863 531.689 -103.512 484.863C-77.0558 439.567 -9.35436 458.855 41.0397 463.469C85.5547 467.545 126.177 481.747 162.416 509.211C207.929 543.706 263.435 578.128 269.642 636.725C276.162 698.274 239.57 758.462 192.812 796.174C150.589 830.228 91.9202 837.536 41.0398 821.1C-0.207786 807.776 -17.7918 760.453 -39.3482 721.179C-53.7218 694.991 -52.2645 665.795 -60.1575 636.725Z" stroke="#011F4A" stroke-width="4"/>
<path fill-rule="evenodd" clip-rule="evenodd" d="M-404.486 600.801C-370.404 545.64 -288.827 670.89 -230.016 648.614C-166.661 624.618 -175.279 478.199 -108.729 488.779C-50.4153 498.05 -117.868 606.684 -108.368 667.953C-101.689 711.028 -53.8816 741.812 -62.8871 784.428C-73.2181 833.318 -108.207 886.035 -155.533 891.148C-201.865 896.154 -234.258 844.729 -262.818 806.03C-279.341 783.64 -261.805 748.627 -277.638 725.69C-313.018 674.436 -437.327 653.953 -404.486 600.801Z" stroke="#011F4A" stroke-width="4"/>
<path fill-rule="evenodd" clip-rule="evenodd" d="M371.14 226.489C353.743 179.939 435.364 154.575 480.759 139.305C509.076 129.78 535.198 153.452 563.889 161.654C580.48 166.397 599.885 163.266 611.408 176.652C622.609 189.665 619.425 208.961 619.698 226.489C619.979 244.496 617.78 260.688 612.989 277.983C598.372 330.741 615.698 436.069 563.889 427.936C509.076 419.33 566.834 305.604 527.575 264.573C488.157 223.376 391.448 280.827 371.14 226.489Z" stroke="#011F4A" stroke-width="4"/>
<path fill-rule="evenodd" clip-rule="evenodd" d="M-233.877 104.822C-230.827 81.711 -208.406 69.6287 -197.968 49.0288C-177.457 8.54646 -187.866 -63.1861 -144.815 -70.9531C-104.168 -78.2865 -101.894 -1.05656 -69.5978 25.8688C-27.5174 60.9517 62.3678 48.5449 66.0198 104.822C69.5883 159.814 -10.1807 173.992 -58.6019 195.318C-86.1594 207.455 -115.084 200.862 -144.815 197.679C-169.834 195 -197.225 197.168 -215.068 178.565C-232.949 159.923 -237.336 131.026 -233.877 104.822Z" stroke="#011F4A" stroke-width="4"/>
<path fill-rule="evenodd" clip-rule="evenodd" d="M157.658 102.815C152.084 73.2885 135.328 35.0973 157.45 15.9502C179.919 -3.49664 212.648 41.3198 240.187 31.3846C304.866 8.05003 349.037 -108.453 409.553 -75.0021C462.924 -45.5015 371.409 39.5249 369.412 102.815C367.563 161.424 449.63 245.169 398.693 269.229C339.405 297.232 298.744 193.502 240.187 163.852C222.885 155.092 200.527 172.553 184.824 160.939C167.354 148.019 161.813 124.822 157.658 102.815Z" stroke="#011F4A" stroke-width="4"/>
<path fill-rule="evenodd" clip-rule="evenodd" d="M-36.64 53.4116C-41.4439 5.91941 -79.928 -61.3505 -39.995 -84.3652C4.01403 -109.729 41.2685 -21.6729 91.4801 -20.4283C138.907 -19.2526 176.406 -103.934 216.879 -77.9977C254.072 -54.1632 221.59 10.4711 206.705 53.4116C197.064 81.2241 166.692 90.8834 150.051 114.79C126.492 148.634 129.881 207.298 91.4801 218.943C52.1433 230.872 11.0023 198.108 -14.7939 164.779C-38.477 134.181 -32.677 92.5904 -36.64 53.4116Z" stroke="#011F4A" stroke-width="4"/>
</g>
</svg>
